<?xml version="1.0" ?><svg data-name="Camada 1" id="Camada_1" viewBox="0 0 64 64" xmlns="http://www.w3.org/2000/svg"><defs><style>.cls-1{fill:#875e39;}.cls-2{fill:#4d4d4d;}.cls-3{fill:#ed3a4f;}.cls-4{fill:#6dc660;}.cls-5{opacity:0.4;}.cls-6{fill:#f2f0ed;}</style></defs><path class="cls-1" d="M32.9,25.65l-.43,0A1.56,1.56,0,0,1,31.4,25a1.54,1.54,0,0,1-.35-1.15L31.51,19a1.59,1.59,0,0,1,1.57-1.43h.15l.43,0a1.59,1.59,0,0,1,1.43,1.72l-.47,4.94a1.59,1.59,0,0,1-1.57,1.42Z"/><path class="cls-2" d="M33.08,18h.11l.43,0a1.09,1.09,0,0,1,1,1.18l-.47,4.93a1.07,1.07,0,0,1-1.07,1H33l-.43,0a1.1,1.1,0,0,1-1-1.18L32,19a1.08,1.08,0,0,1,1.07-1m0-1h0A2.07,2.07,0,0,0,31,18.91l-.47,4.93a2.07,2.07,0,0,0,1.87,2.26l.43,0h.2a2.07,2.07,0,0,0,2.07-1.88l.46-4.93a2,2,0,0,0-.46-1.52,2.07,2.07,0,0,0-1.41-.74l-.43,0Z"/><path class="cls-3" d="M39.24,58.5a8.29,8.29,0,0,1-3.37-1A7.24,7.24,0,0,0,33,56.72a3.12,3.12,0,0,0-.52,0l-.08,0-.09,0a3,3,0,0,0-.52,0,7.19,7.19,0,0,0-2.82.83,8.34,8.34,0,0,1-3.37,1,4.45,4.45,0,0,1-1.09-.13c-5.59-1.4-9.77-5.46-12.42-12a37.76,37.76,0,0,1-1.74-5.58c-1.45-6.06-.82-11,1.81-14.43,2.33-3,6.12-4.64,10.68-4.64a20.42,20.42,0,0,1,8.92,2.12l.64.29.64-.29A20.41,20.41,0,0,1,42,21.67c4.56,0,8.36,1.65,10.68,4.64,2.64,3.38,3.26,8.37,1.82,14.43a36.6,36.6,0,0,1-1.75,5.58c-2.64,6.59-6.82,10.65-12.42,12A4.37,4.37,0,0,1,39.24,58.5Z"/><path class="cls-2" d="M42,22.17c4,0,7.89,1.37,10.29,4.45s3.27,7.53,1.72,14a36.07,36.07,0,0,1-1.72,5.5C49.91,52,46.1,56.41,40.2,57.88a4.07,4.07,0,0,1-1,.12C37,58,35.16,56.22,33,56.22a3,3,0,0,0-.6.05,3.2,3.2,0,0,0-.61-.05c-2.11,0-4,1.78-6.19,1.78a4.09,4.09,0,0,1-1-.12C18.77,56.41,15,52,12.6,46.13a37.23,37.23,0,0,1-1.73-5.5c-1.54-6.48-.58-11,1.73-14s6.24-4.45,10.28-4.45a19.81,19.81,0,0,1,8.7,2.07,6.55,6.55,0,0,0,.86.37,7.19,7.19,0,0,0,.86-.37A19.77,19.77,0,0,1,42,22.17m0-1h0a20.85,20.85,0,0,0-9.14,2.17l-.41.2-.43-.2a20.74,20.74,0,0,0-9.13-2.17c-4.72,0-8.65,1.72-11.07,4.84-2.73,3.5-3.39,8.64-1.91,14.85a39.09,39.09,0,0,0,1.77,5.65c2.71,6.75,7,10.9,12.76,12.34a4.89,4.89,0,0,0,1.21.15,8.92,8.92,0,0,0,3.57-1,6.86,6.86,0,0,1,2.62-.79,3.15,3.15,0,0,1,.44,0l.17,0,.17,0a3,3,0,0,1,.43,0,6.85,6.85,0,0,1,2.63.79,8.92,8.92,0,0,0,3.57,1,4.87,4.87,0,0,0,1.2-.15c5.76-1.44,10.06-5.59,12.77-12.34A39.09,39.09,0,0,0,55,40.86c1.48-6.21.82-11.35-1.91-14.85-2.42-3.12-6.36-4.84-11.08-4.84Z"/><path class="cls-4" d="M26.15,22.86A5.49,5.49,0,0,1,24,22.54c-1.79-.78-4.32-4.69-5.67-6.95a1.31,1.31,0,0,1-.08-1.23,1.33,1.33,0,0,1,1-.79,35.67,35.67,0,0,1,6.53-.89,5.49,5.49,0,0,1,2.11.32c1.8.78,4.33,4.68,5.68,6.94a1.36,1.36,0,0,1-.88,2A35.66,35.66,0,0,1,26.15,22.86Z"/><path class="cls-2" d="M25.78,13.18a5,5,0,0,1,1.91.28c1.71.74,4.3,4.81,5.45,6.74a.86.86,0,0,1-.56,1.28,34.56,34.56,0,0,1-6.43.88,5.07,5.07,0,0,1-1.91-.28c-1.71-.74-4.29-4.81-5.44-6.74a.85.85,0,0,1,.55-1.28,34.68,34.68,0,0,1,6.43-.88m0-1h0a35.67,35.67,0,0,0-6.64.9,1.88,1.88,0,0,0-1.31,1.08,1.84,1.84,0,0,0,.11,1.69c1.68,2.82,4.08,6.36,5.9,7.15a5.94,5.94,0,0,0,2.31.36,35.55,35.55,0,0,0,6.64-.9,1.88,1.88,0,0,0,1.32-1.08A1.9,1.9,0,0,0,34,19.69c-1.69-2.83-4.08-6.36-5.91-7.15a5.9,5.9,0,0,0-2.31-.36Z"/><g class="cls-5"><rect class="cls-6" height="9" rx="1.86" width="6" x="15" y="25"/></g></svg>