<?xml version="1.0" ?><svg data-name="Camada 1" id="Camada_1" viewBox="0 0 64 64" xmlns="http://www.w3.org/2000/svg"><defs><style>.cls-1{fill:#875e39;}.cls-2{fill:#4d4d4d;}.cls-3{fill:#6dc660;}.cls-4{fill:#d35b6f;}.cls-5{opacity:0.4;}.cls-6{fill:#f2f0ed;}</style></defs><path class="cls-1" d="M26.29,22.83a1.36,1.36,0,0,1-.9-.34l-3.13-2.73a1.35,1.35,0,0,1-.13-1.92l.26-.3a1.35,1.35,0,0,1,1-.47,1.32,1.32,0,0,1,.89.34l3.13,2.73a1.35,1.35,0,0,1,.13,1.92l-.26.3A1.33,1.33,0,0,1,26.29,22.83Z"/><path class="cls-2" d="M23.42,17.52a.91.91,0,0,1,.6.22l3.13,2.73a.93.93,0,0,1,.09,1.3l-.26.3a.91.91,0,0,1-.7.31.93.93,0,0,1-.6-.22l-3.13-2.73a.93.93,0,0,1-.09-1.3l.27-.3a.93.93,0,0,1,.69-.31m0-.89a1.84,1.84,0,0,0-1.37.62l-.26.3A1.82,1.82,0,0,0,22,20.1l3.13,2.73a1.83,1.83,0,0,0,1.18.44,1.79,1.79,0,0,0,1.37-.62l.26-.3a1.81,1.81,0,0,0-.17-2.55l-3.13-2.73a1.84,1.84,0,0,0-1.19-.44Z"/><path class="cls-3" d="M22.61,21.51a1.12,1.12,0,0,1-1.05-.74c-.73-2.09-1.53-4.84-1.16-6.1S23,11.42,24.82,10a1.09,1.09,0,0,1,.68-.24,1.11,1.11,0,0,1,1.05.74c.73,2.09,1.53,4.85,1.16,6.1s-2.61,3.26-4.42,4.67A1.12,1.12,0,0,1,22.61,21.51Z"/><path class="cls-2" d="M25.5,10.27a.61.61,0,0,1,.58.41c.51,1.46,1.51,4.58,1.15,5.79s-3,3.43-4.25,4.41a.58.58,0,0,1-.37.13.61.61,0,0,1-.57-.4c-.52-1.47-1.51-4.58-1.16-5.8s3-3.43,4.25-4.41a.6.6,0,0,1,.37-.13m0-1h0a1.58,1.58,0,0,0-1,.34c-2.72,2.12-4.26,3.78-4.6,4.92s.07,3.27,1.17,6.41a1.61,1.61,0,0,0,2.51.73c2.71-2.12,4.26-3.77,4.59-4.92s-.07-3.26-1.17-6.4A1.6,1.6,0,0,0,25.5,9.27Z"/><path class="cls-1" d="M20.41,28l-.19,0L19.83,28a1.4,1.4,0,0,1-.94-.54,1.42,1.42,0,0,1-.28-1.05l.55-4.12A1.41,1.41,0,0,1,20.56,21l.19,0,.39.05a1.41,1.41,0,0,1,1.22,1.59l-.55,4.12A1.41,1.41,0,0,1,20.41,28Z"/><path class="cls-2" d="M20.56,21.53h.12l.4.05a.93.93,0,0,1,.79,1l-.55,4.11a.92.92,0,0,1-.91.8h-.12l-.4-.05a.93.93,0,0,1-.79-1l.55-4.11a.92.92,0,0,1,.91-.8m0-1h0a1.93,1.93,0,0,0-1.9,1.67l-.55,4.11a2,2,0,0,0,.38,1.42,1.9,1.9,0,0,0,1.27.74l.4.05.25,0a1.93,1.93,0,0,0,1.9-1.67l.55-4.11a1.92,1.92,0,0,0-1.65-2.16l-.4-.05-.25,0Z"/><path class="cls-3" d="M15.44,26.17c-1.31-.09-3.63-1.82-5.34-3.25A1.12,1.12,0,0,1,9.71,22a1.1,1.1,0,0,1,.52-.85c1.76-1.07,4.13-2.35,5.43-2.35h.14c1.31.1,3.63,1.82,5.34,3.25a1.12,1.12,0,0,1,.39.92,1.1,1.1,0,0,1-.52.85c-1.76,1.08-4.12,2.36-5.43,2.36Z"/><path class="cls-2" d="M15.66,19.3h.1c1.28.09,3.87,2.15,5.06,3.14a.59.59,0,0,1-.07.95c-1.25.77-3.89,2.29-5.17,2.29h-.1c-1.28-.09-3.87-2.14-5.06-3.14a.59.59,0,0,1,.07-1c1.25-.77,3.89-2.28,5.17-2.28m0-1h0c-1.14,0-3.05.81-5.69,2.42a1.59,1.59,0,0,0-.19,2.58c2.57,2.15,4.46,3.28,5.63,3.37h.17c1.14,0,3.06-.82,5.69-2.43a1.59,1.59,0,0,0,.19-2.58c-2.57-2.15-4.46-3.28-5.62-3.37Z"/><path class="cls-1" d="M22.26,23.17A1.62,1.62,0,0,1,21,22.52l-4.31-5.87A1.62,1.62,0,0,1,17,14.39a1.63,1.63,0,0,1,2.27.35l4.31,5.86a1.6,1.6,0,0,1,.29,1.2,1.61,1.61,0,0,1-1.59,1.37Z"/><path class="cls-2" d="M17.94,14.58a1.14,1.14,0,0,1,.9.45l4.31,5.87a1.12,1.12,0,0,1-.23,1.56,1.15,1.15,0,0,1-.66.21,1.11,1.11,0,0,1-.91-.45L17,16.36a1.11,1.11,0,0,1,.9-1.78m0-1h0a2.08,2.08,0,0,0-1.25.41,2.11,2.11,0,0,0-.45,3l4.31,5.86A2.12,2.12,0,1,0,24,20.3l-4.31-5.86a2.14,2.14,0,0,0-1.71-.86Z"/><path class="cls-4" d="M26,28.5a4.5,4.5,0,0,1-.23-9H26a4.5,4.5,0,0,1,.23,9Z"/><path class="cls-2" d="M26,20a4,4,0,0,1,.21,8H26a4,4,0,0,1-.21-8H26m0-1h-.26A5,5,0,0,0,26,29h.26A5,5,0,0,0,26,19Z"/><path class="cls-4" d="M32,29.5a4.5,4.5,0,0,1-.23-9H32a4.5,4.5,0,0,1,.23,9Z"/><path class="cls-2" d="M32,21a4,4,0,0,1,.21,8H32a4,4,0,0,1-.21-8H32m0-1h-.26A5,5,0,0,0,32,30h.26A5,5,0,0,0,32,20Z"/><path class="cls-4" d="M38,31.5a4.5,4.5,0,0,1-.23-9H38a4.5,4.5,0,0,1,.23,9Z"/><path class="cls-2" d="M38,23a4,4,0,0,1,.21,8H38a4,4,0,0,1-.21-8H38m0-1h-.26A5,5,0,0,0,38,32h.26A5,5,0,0,0,38,22Z"/><path class="cls-4" d="M37,36.5a4.5,4.5,0,0,1-.23-9H37a4.5,4.5,0,0,1,.23,9Z"/><path class="cls-2" d="M37,28a4,4,0,0,1,.21,8H37a4,4,0,0,1-.21-8H37m0-1h-.26A5,5,0,0,0,37,37h.26A5,5,0,0,0,37,27Z"/><path class="cls-4" d="M40,48.5a4.5,4.5,0,0,1-.23-9H40a4.5,4.5,0,0,1,.23,9Z"/><path class="cls-2" d="M40,40a4,4,0,0,1,.21,8H40a4,4,0,0,1-.21-8H40m0-1h-.26A5,5,0,0,0,40,49h.26A5,5,0,0,0,40,39Z"/><path class="cls-4" d="M35,51.5a4.5,4.5,0,0,1-.23-9H35a4.5,4.5,0,0,1,.23,9Z"/><path class="cls-2" d="M35,43a4,4,0,0,1,.21,8H35a4,4,0,0,1-.21-8H35m0-1h-.26A5,5,0,0,0,35,52h.26A5,5,0,0,0,35,42Z"/><path class="cls-4" d="M40,55.5a4.5,4.5,0,0,1-.23-9H40a4.5,4.5,0,0,1,.23,9Z"/><path class="cls-2" d="M40,47a4,4,0,0,1,.21,8H40a4,4,0,0,1-.21-8H40m0-1h-.26A5,5,0,0,0,40,56h.26A5,5,0,0,0,40,46Z"/><path class="cls-4" d="M39,59.5a4.5,4.5,0,0,1-.23-9H39a4.5,4.5,0,0,1,.23,9Z"/><path class="cls-2" d="M39,51a4,4,0,0,1,.21,8H39a4,4,0,0,1-.21-8H39m0-1h-.26A5,5,0,0,0,39,60h.26A5,5,0,0,0,39,50Z"/><path class="cls-4" d="M35,57.5a4.5,4.5,0,0,1-.23-9H35a4.5,4.5,0,0,1,.23,9Z"/><path class="cls-2" d="M35,49a4,4,0,0,1,.21,8H35a4,4,0,0,1-.21-8H35m0-1h-.26A5,5,0,0,0,35,58h.26A5,5,0,0,0,35,48Z"/><path class="cls-4" d="M30,53.5a4.5,4.5,0,0,1-.23-9H30a4.5,4.5,0,0,1,.23,9Z"/><path class="cls-2" d="M30,45a4,4,0,0,1,.21,8H30a4,4,0,0,1-.21-8H30m0-1h-.26A5,5,0,0,0,30,54h.26A5,5,0,0,0,30,44Z"/><path class="cls-4" d="M29,48.5a4.5,4.5,0,0,1-.23-9H29a4.5,4.5,0,0,1,.23,9Z"/><path class="cls-2" d="M29,40a4,4,0,0,1,.21,8H29a4,4,0,0,1-.21-8H29m0-1h-.26A5,5,0,0,0,29,49h.26A5,5,0,0,0,29,39Z"/><path class="cls-4" d="M40,41.5a4.5,4.5,0,0,1-.23-9H40a4.5,4.5,0,0,1,.23,9Z"/><path class="cls-2" d="M40,33a4,4,0,0,1,.21,8H40a4,4,0,0,1-.21-8H40m0-1h-.26A5,5,0,0,0,40,42h.26A5,5,0,0,0,40,32Z"/><path class="cls-4" d="M25,44.5a4.5,4.5,0,0,1-.23-9H25a4.5,4.5,0,0,1,.23,9Z"/><path class="cls-2" d="M25,36a4,4,0,0,1,.21,8H25a4,4,0,0,1-.21-8H25m0-1h-.26A5,5,0,0,0,25,45h.26A5,5,0,0,0,25,35Z"/><path class="cls-4" d="M35,43.5a4.5,4.5,0,0,1-.23-9H35a4.5,4.5,0,0,1,.23,9Z"/><path class="cls-2" d="M35,35a4,4,0,0,1,.21,8H35a4,4,0,0,1-.21-8H35m0-1h-.26A5,5,0,0,0,35,44h.26A5,5,0,0,0,35,34Z"/><path class="cls-4" d="M31,35.5a4.5,4.5,0,0,1-.23-9H31a4.5,4.5,0,0,1,.23,9Z"/><path class="cls-2" d="M31,27a4,4,0,0,1,.21,8H31a4,4,0,0,1-.21-8H31m0-1h-.26A5,5,0,0,0,31,36h.26A5,5,0,0,0,31,26Z"/><path class="cls-4" d="M21,42.5a4.5,4.5,0,0,1-.23-9H21a4.5,4.5,0,0,1,.23,9Z"/><path class="cls-2" d="M21,34a4,4,0,0,1,.21,8H21a4,4,0,0,1-.21-8H21m0-1h-.26A5,5,0,0,0,21,43h.26A5,5,0,0,0,21,33Z"/><path class="cls-4" d="M42,33.5a4.5,4.5,0,0,1-.23-9H42a4.5,4.5,0,0,1,.23,9Z"/><path class="cls-2" d="M42,25a4,4,0,0,1,.21,8H42a4,4,0,0,1-.21-8H42m0-1h-.26A5,5,0,0,0,42,34h.26A5,5,0,0,0,42,24Z"/><path class="cls-4" d="M25,31.5a4.5,4.5,0,0,1-.23-9H25a4.5,4.5,0,0,1,.23,9Z"/><path class="cls-2" d="M25,23a4,4,0,0,1,.21,8H25a4,4,0,0,1-.21-8H25m0-1h-.26A5,5,0,0,0,25,32h.26A5,5,0,0,0,25,22Z"/><path class="cls-4" d="M25,38.5a4.5,4.5,0,0,1-.23-9H25a4.5,4.5,0,0,1,.23,9Z"/><path class="cls-2" d="M25,30a4,4,0,0,1,.21,8H25a4,4,0,0,1-.21-8H25m0-1h-.26A5,5,0,0,0,25,39h.26A5,5,0,0,0,25,29Z"/><path class="cls-4" d="M31,42.5a4.5,4.5,0,0,1-.23-9H31a4.5,4.5,0,0,1,.23,9Z"/><path class="cls-2" d="M31,34a4,4,0,0,1,.21,8H31a4,4,0,0,1-.21-8H31m0-1h-.26A5,5,0,0,0,31,43h.26A5,5,0,0,0,31,33Z"/><path class="cls-4" d="M20,34.5a4.5,4.5,0,0,1-.23-9H20a4.5,4.5,0,0,1,.23,9Z"/><path class="cls-2" d="M20,26a4,4,0,0,1,.21,8H20a4,4,0,0,1-.21-8H20m0-1h-.26A5,5,0,0,0,20,35h.26A5,5,0,0,0,20,25Z"/><path class="cls-3" d="M16.33,23.85c-1.51-.09-4.23-2.06-6.24-3.69a1.21,1.21,0,0,1-.43-1,1.18,1.18,0,0,1,.55-.93c2-1.29,4.79-2.82,6.29-2.82h.12c1.52.09,4.23,2.06,6.24,3.7a1.19,1.19,0,0,1,.44,1,1.21,1.21,0,0,1-.55.94c-2.05,1.28-4.79,2.82-6.29,2.82Z"/><path class="cls-2" d="M16.5,15.91h.09c1.49.09,4.56,2.45,6,3.59a.68.68,0,0,1-.07,1.11c-1.46.92-4.54,2.75-6,2.75h-.1c-1.49-.09-4.55-2.45-5.95-3.59a.69.69,0,0,1,.07-1.12c1.45-.92,4.54-2.74,6-2.74m0-1h0c-1.3,0-3.5,1-6.56,2.89a1.69,1.69,0,0,0-.16,2.74c3,2.45,5.2,3.73,6.52,3.81h.16c1.3,0,3.5-1,6.55-2.9a1.69,1.69,0,0,0,.17-2.74c-3-2.45-5.2-3.73-6.53-3.81Z"/><g class="cls-5"><rect class="cls-6" height="2.23" rx="0.78" transform="translate(-14.77 37.61) rotate(-71.24)" width="4.23" x="16.75" y="28"/></g></svg>