<?xml version="1.0" ?><svg data-name="Camada 1" id="Camada_1" viewBox="0 0 64 64" xmlns="http://www.w3.org/2000/svg"><defs><style>.cls-1{fill:#f29c2a;}.cls-2{fill:#4d4d4d;}.cls-3{fill:#f7d443;}.cls-4{opacity:0.4;}.cls-5{fill:#f2f0ed;}</style></defs><path class="cls-1" d="M20,55.22A5,5,0,0,1,16.72,54l-4.3-3.67a5,5,0,0,1-.56-7.07c3.44-5.83,7-12.46,7-13.37a16.3,16.3,0,0,1,3.7-13.14A22.56,22.56,0,0,1,38.85,9.32a13.37,13.37,0,0,1,8.83,3C54.6,18.22,53.2,31.17,47.41,38a16.12,16.12,0,0,1-10.83,5.64c-.9.16-7.24,5.17-12.84,9.92A4.92,4.92,0,0,1,20,55.22Z"/><path class="cls-2" d="M38.85,9.82a12.87,12.87,0,0,1,8.5,2.86C54,18.36,52.7,31,47,37.63a15.74,15.74,0,0,1-10.5,5.47c-1.46.14-13.11,10-13.11,10a4.53,4.53,0,0,1-6.38.51L12.75,50a4.52,4.52,0,0,1-.51-6.36s7.34-12.39,7.13-13.76A15.77,15.77,0,0,1,23,17.09a22.05,22.05,0,0,1,15.9-7.27m0-1a23.1,23.1,0,0,0-16.66,7.62,16.82,16.82,0,0,0-3.82,13.49c-.19,1.18-3.65,7.53-7,13.09a5.54,5.54,0,0,0,.68,7.72l4.29,3.66a5.54,5.54,0,0,0,7.74-.55c5.33-4.53,11.43-9.38,12.55-9.76a16.7,16.7,0,0,0,11.11-5.81c5.93-7,7.35-20.26.21-26.36a13.84,13.84,0,0,0-9.15-3.1Z"/><path class="cls-3" d="M38.85,9.82v2a10.92,10.92,0,0,1,7.2,2.38c5.71,4.88,4.48,16.25-.54,22.13a13.68,13.68,0,0,1-9.18,4.78c-.62.06-2.08.21-14.2,10.5l-.13.1-.1.13a2.54,2.54,0,0,1-3.56.28l-4.29-3.67a2.54,2.54,0,0,1-.88-1.72,2.49,2.49,0,0,1,.59-1.82l.11-.13.09-.15c7.71-13,7.5-14.36,7.38-15.1a13.83,13.83,0,0,1,3.13-11.14,19.94,19.94,0,0,1,14.38-6.57v-2m0,0A22.05,22.05,0,0,0,23,17.09a15.77,15.77,0,0,0-3.58,12.76c.21,1.37-7.13,13.76-7.13,13.76A4.52,4.52,0,0,0,12.75,50L17,53.64a4.53,4.53,0,0,0,6.38-.51s11.65-9.89,13.11-10A15.74,15.74,0,0,0,47,37.63c5.67-6.65,7-19.27.32-25a12.87,12.87,0,0,0-8.5-2.86Z"/><path class="cls-2" d="M40.55,20.39c2.28,1.89-.09,9.39-2,11.67s-8.82,6-11.1,4.12.1-9.39,2-11.67S38.28,18.51,40.55,20.39Z"/><g class="cls-4"><rect class="cls-5" height="6" rx="1.86" transform="translate(-3.52 12.88) rotate(-19.87)" width="9" x="30.5" y="13.5"/></g></svg>