<?xml version="1.0" ?><svg data-name="Camada 1" id="Camada_1" viewBox="0 0 64 64" xmlns="http://www.w3.org/2000/svg"><defs><style>.cls-1{fill:#875e39;}.cls-2{fill:#4d4d4d;}.cls-3{fill:#f29c2a;}.cls-4{fill:#6dc660;}.cls-5{opacity:0.4;}.cls-6{fill:#f2f0ed;}</style></defs><path class="cls-1" d="M37.42,20.75a1.58,1.58,0,0,1-.61-.12l-.44-.18a1.6,1.6,0,0,1-.86-2.1l1.91-4.59a1.58,1.58,0,0,1,2.09-.86l.44.18a1.58,1.58,0,0,1,.87.87,1.61,1.61,0,0,1,0,1.22l-1.92,4.6A1.59,1.59,0,0,1,37.42,20.75Z"/><path class="cls-2" d="M38.9,13.27a1.06,1.06,0,0,1,.42.09l.44.18A1.1,1.1,0,0,1,40.35,15l-1.91,4.6a1.1,1.1,0,0,1-1,.67,1,1,0,0,1-.42-.08L36.56,20A1.11,1.11,0,0,1,36,18.55L37.88,14a1.12,1.12,0,0,1,1-.68m0-1h0A2.1,2.1,0,0,0,37,13.57l-1.91,4.59a2.1,2.1,0,0,0,1.13,2.75l.44.18a2,2,0,0,0,.8.16A2.09,2.09,0,0,0,39.37,20l1.91-4.59a2.14,2.14,0,0,0,0-1.61,2.07,2.07,0,0,0-1.13-1.14l-.44-.18a2.06,2.06,0,0,0-.81-.17Z"/><circle class="cls-3" cx="31.5" cy="37.5" r="21"/><path class="cls-2" d="M31.5,17A20.5,20.5,0,1,1,11,37.5,20.5,20.5,0,0,1,31.5,17m0-1A21.5,21.5,0,1,0,53,37.5,21.52,21.52,0,0,0,31.5,16Z"/><path class="cls-4" d="M30.82,18.15A5.12,5.12,0,0,1,29,17.88c-1.88-.76-4.61-4.73-6.07-7a1.4,1.4,0,0,1-.12-1.26,1.43,1.43,0,0,1,1-.83,35.06,35.06,0,0,1,7.06-1.11,5.12,5.12,0,0,1,1.86.27c1.88.75,4.61,4.72,6.07,7a1.4,1.4,0,0,1-.85,2.1A34.84,34.84,0,0,1,30.82,18.15Z"/><path class="cls-2" d="M30.79,8.15a4.93,4.93,0,0,1,1.68.23c1.78.72,4.58,4.86,5.83,6.83a.89.89,0,0,1-.55,1.34,34.2,34.2,0,0,1-6.93,1.1,4.67,4.67,0,0,1-1.68-.24c-1.79-.72-4.58-4.86-5.83-6.82a.9.9,0,0,1,.54-1.35,34.45,34.45,0,0,1,6.94-1.09m0-1a35.23,35.23,0,0,0-7.18,1.12,1.91,1.91,0,0,0-1.3,1.13,1.87,1.87,0,0,0,.16,1.72c1.82,2.87,4.39,6.45,6.3,7.22a5.45,5.45,0,0,0,2.05.31A35.1,35.1,0,0,0,38,17.52a1.91,1.91,0,0,0,1.31-1.13,1.94,1.94,0,0,0-.16-1.72c-1.82-2.87-4.4-6.45-6.3-7.21a5.53,5.53,0,0,0-2.05-.31Z"/><g class="cls-5"><rect class="cls-6" height="6" rx="1.86" transform="translate(-11.59 23.03) rotate(-45)" width="9" x="17.5" y="22.5"/></g></svg>